HIERARCHY
ROOT Hips
{
	OFFSET 0.000000 0.876885 0.000000
	CHANNELS 6 Xposition Yposition Zposition Zrotation Yrotation Xrotation 
	JOINT LeftUpLeg
	{
		OFFSET 0.077586 -0.105444 -0.012845
		CHANNELS 3 Zrotation Yrotation Xrotation
		JOINT LeftLeg
		{
			OFFSET 0.034570 -0.367408 0.064922
			CHANNELS 3 Zrotation Yrotation Xrotation
			JOINT LeftFoot
			{
				OFFSET -0.026107 -0.325721 -0.292849
				CHANNELS 3 Zrotation Yrotation Xrotation
				End Site #name: LeftToeBase
				{
					OFFSET 0.044650 -0.039010 0.126800
				}
			}
		}
	}
	JOINT rightUpLeg
	{
		OFFSET -0.066053 -0.118683 -0.040017
		CHANNELS 3 Zrotation Yrotation Xrotation
		JOINT RightLeg
		{
			OFFSET -0.042052 -0.363325 0.030637
			CHANNELS 3 Zrotation Yrotation Xrotation
			JOINT RightFoot
			{
				OFFSET 0.034385 0.013395 -0.428841
				CHANNELS 3 Zrotation Yrotation Xrotation
				End Site #name: RightToeBase
				{
					OFFSET 0.011202 -0.146687 -0.027352
				}
			}
		}
	}
	JOINT Spine
	{
		OFFSET -0.003615 0.089592 0.007857
		CHANNELS 3 Zrotation Yrotation Xrotation
		JOINT Spine1
		{
			OFFSET 0.001000 0.116091 0.111680
			CHANNELS 3 Zrotation Yrotation Xrotation
			JOINT Spine2
			{
				OFFSET 0.002523 0.026747 0.060522
				CHANNELS 3 Zrotation Yrotation Xrotation
				JOINT Neck
				{
					OFFSET 0.032254 0.217026 0.057095
					CHANNELS 3 Zrotation Yrotation Xrotation
					End Site #name: Head
					{
						OFFSET 0.003408 0.026767 0.074960
					}
				}
				JOINT LeftShoulder
				{
					OFFSET 0.085885 0.122622 0.019278
					CHANNELS 3 Zrotation Yrotation Xrotation
					JOINT LeftArm
					{
						OFFSET 0.119710 -0.056084 0.000359
						CHANNELS 3 Zrotation Yrotation Xrotation
						JOINT LeftForeArm
						{
							OFFSET 0.066607 -0.261223 -0.074288
							CHANNELS 3 Zrotation Yrotation Xrotation
							End Site #name: LeftHand
							{
								OFFSET -0.033663 -0.188689 0.166971
							}
						}
					}
				}
				JOINT RightShoulder
				{
					OFFSET -0.054091 0.150449 0.025661
					CHANNELS 3 Zrotation Yrotation Xrotation
					JOINT RightArm
					{
						OFFSET -0.123418 -0.011880 -0.007639
						CHANNELS 3 Zrotation Yrotation Xrotation
						JOINT RightForeArm
						{
							OFFSET -0.083707 -0.206007 -0.184260
							CHANNELS 3 Zrotation Yrotation Xrotation
							End Site #name: RightHand
							{
								OFFSET -0.077577 -0.251842 0.016934
							}
						}
					}
				}
			}
		}
	}
}
MOTION
Frames: 18
Frame Time: 0.041667
0.000000 0.876885 0.000000 0.000000 0.000000 0.000000 0.000000 0.000000 0.000000 0.000000 0.000000 0.000000 0.000000 0.000000 0.000000 0.000000 0.000000 0.000000 0.000000 0.000000 0.000000 0.000000 0.000000 0.000000 0.000000 0.000000 0.000000 0.000000 0.000000 0.000000 0.000000 -0.000000 -0.000000 0.000000 0.000000 0.000000 0.000000 -0.000000 -0.000000 0.000000 0.000000 0.000000 0.000000 0.000000 0.000000 -0.000000 -0.000000 0.000000 0.000000 0.000000 0.000000 0.000000 0.000000 0.000000 
-0.016994 0.876811 0.117469 -1.733801 1.732587 1.201231 7.116077 1.738145 16.625072 -1.429803 2.066429 -15.130572 -4.989502 -11.446343 3.510747 -1.320092 2.821420 -27.112928 0.877946 -4.382252 23.667022 -2.447792 0.069348 -3.956347 2.059753 -1.900696 -1.906141 1.641410 -3.677234 -0.225530 -3.348764 -0.263523 1.555393 0.245260 -0.491557 -1.381063 -1.394803 -9.572243 -4.346127 -4.948842 -2.407959 -12.914877 0.428022 3.569083 -15.119012 -9.820538 -5.197693 1.565299 -5.621177 -1.600034 17.877335 -1.926349 -2.260955 7.383475 
-0.042498 0.918755 0.269013 -6.201220 2.537165 1.653102 12.119607 1.585127 36.506441 4.611083 0.402151 -37.405896 -18.994262 -12.709648 30.332902 -0.384502 5.090272 -42.146466 -0.247516 -8.703109 6.552362 -7.389432 0.839487 -3.824333 7.948756 -7.062870 -4.300138 2.686902 -5.496700 -2.615476 -4.991389 -0.537635 1.108208 -0.538239 1.267021 2.611994 2.674178 -12.621870 -6.301765 -9.562581 -1.341377 -12.000831 -2.569892 1.143784 -20.546205 -22.390022 -9.477362 4.255424 -8.751856 -1.214944 26.335221 4.987096 0.718607 -1.060840 
-0.071690 0.961531 0.430161 -8.446511 1.982590 0.484765 12.252085 1.429088 44.817299 10.985527 -2.010286 -39.542799 -21.688426 -2.582597 46.467729 0.915515 5.476693 -40.481582 0.433123 -12.622995 -26.732619 -9.392871 1.700199 -0.407638 11.197762 -9.361988 -7.709846 3.288458 -7.066159 -1.473422 -5.513214 -0.745137 -0.533562 -0.274306 -0.293226 8.022010 5.860627 -13.585565 -7.273441 -13.965307 2.190406 -4.878357 -6.055700 -3.761396 -16.123079 -26.000010 -12.210981 5.731929 -7.268138 -3.399437 26.580682 3.965128 5.701057 -15.449611 
-0.101606 0.987066 0.591301 -8.806929 0.731845 -1.297399 9.323032 2.044932 41.665434 12.112310 -7.250094 -15.256720 -15.263188 2.767653 41.610448 3.476650 4.366608 -26.699455 2.963205 -14.742318 -62.985689 -5.943431 1.431823 2.426404 11.928263 -9.079203 -12.754149 3.010489 -7.851790 3.735515 -3.969991 -1.334608 -2.644548 -0.445337 0.307392 8.091027 5.236596 -12.052046 -6.364151 -14.437888 5.671378 3.448065 -9.555100 -8.054705 -8.796969 -21.531296 -17.011586 6.307494 -1.216638 -5.370540 14.737654 4.444215 10.259315 -27.420112 
-0.128954 0.964203 0.749564 -10.465219 -1.168255 -5.665842 7.333021 2.049909 27.924774 3.788194 -10.366853 34.639961 -8.729198 8.223428 35.255284 8.954417 2.607348 -9.305514 5.508596 -16.996627 -75.236684 -8.621417 1.872413 1.622300 13.297747 -9.527728 -16.013259 1.900056 -6.240389 8.254449 0.652875 -1.896641 -4.859315 0.211620 -2.492597 9.967999 3.251938 -4.992845 -2.525069 -9.697243 7.665582 13.168714 -12.188510 -10.548049 4.677639 -12.624676 -18.907340 4.730861 4.908588 -2.410819 -4.322431 8.710059 17.147914 -39.637400 
-0.152104 0.935513 0.896595 -12.418813 -2.951710 -11.668318 7.954370 1.505485 4.834699 -1.417297 -8.157618 64.052170 -0.343332 15.723184 23.814376 14.363231 -0.250231 6.055452 2.658799 -13.445664 -71.609242 -7.400536 -0.092132 -10.429941 13.609964 -10.529377 -11.989843 1.144156 -3.743251 6.455932 5.380216 -1.775176 -3.829017 0.945872 -4.632974 7.949913 7.176476 4.625663 2.510645 -3.768603 7.725699 21.247024 -12.613413 -10.800862 10.140247 -7.228227 -13.683428 2.635787 7.304481 2.435168 -19.567331 11.682480 19.473327 -41.374113 
-0.171622 0.937772 1.044513 -9.689454 -3.311340 -16.224071 -0.609700 -1.691510 -15.423300 1.951466 -9.784687 43.892049 -0.787040 12.364956 18.446586 11.779448 -5.062265 27.361128 -0.662188 -8.635856 -73.966370 -4.234879 -0.316899 -9.779097 10.249197 -8.128913 -10.470341 0.231279 -0.948349 3.690936 7.602970 -1.147672 -1.405842 -0.834961 1.059766 13.506393 18.024733 12.933209 8.726334 0.110927 6.298025 23.180372 -15.613732 -12.939615 9.965669 -8.540791 -5.997859 1.561824 8.485850 2.651676 -21.861674 12.079877 23.692287 -49.171217 
-0.188860 0.959582 1.196723 -7.749585 -2.806631 -18.518057 -2.899727 -2.068191 -12.600790 7.891760 -5.628647 -7.770341 -8.280821 4.588077 28.107401 8.703631 -6.345070 36.299898 -3.255857 -4.436466 -67.543007 1.760925 0.043902 6.090824 7.933382 -5.919689 -13.428367 -0.296532 0.125073 6.109533 8.545709 -0.352705 -2.221021 -1.339786 2.617747 21.616108 25.513784 17.231956 13.356244 2.711996 5.218479 24.294657 -18.663280 -15.191414 8.966124 -12.168654 -3.040279 1.384775 8.486531 0.893998 -17.746472 19.307740 29.539501 -51.352827 
-0.203218 0.942574 1.348187 -9.704892 -2.696599 -20.222143 -2.902504 -1.199056 -5.629411 8.977873 -1.396547 -38.042108 -15.586417 0.446459 38.907948 7.358590 -5.174045 31.840040 -2.730449 -2.695761 -44.815787 -0.926235 0.666297 5.760789 9.890082 -7.114053 -15.523651 -0.200846 -0.316504 7.790325 8.372290 0.186976 -3.316207 -1.203872 0.965705 25.368791 29.483201 19.565272 16.283590 2.457504 6.179085 27.269194 -18.957341 -16.018530 2.883682 -13.087172 -2.902894 1.439693 5.138528 1.155825 -12.912518 27.367473 32.878251 -48.363877 
-0.213422 0.882703 1.486369 -8.574898 -2.901962 -24.763971 -7.597819 -2.287744 -5.660726 8.154056 -4.023410 -18.106251 -9.559423 5.027067 32.021604 1.160148 -2.391926 19.841004 -1.181146 -0.849089 -15.826538 -6.740960 0.300090 -7.060452 8.695422 -6.570878 -12.867047 -0.044331 -0.543984 6.149361 6.461232 -0.188548 -1.093666 -1.181452 1.879478 19.866432 28.537697 21.385702 17.529601 4.148669 4.428030 24.230051 -18.700246 -16.308991 -1.822288 -13.263137 -7.389706 2.414273 3.163495 1.448449 -10.059634 33.319669 31.905484 -41.822569 
-0.219667 0.855582 1.601088 -6.337703 -2.488413 -29.117609 -10.951986 -3.241547 -6.517509 5.751196 -5.598745 2.325665 -6.045866 6.153197 24.511502 -1.356301 -0.090721 -0.226584 -0.329383 -1.179275 -4.185502 -12.382023 0.300271 -10.867042 6.938664 -5.914620 -6.436545 0.174563 -0.702640 2.802447 5.223231 -0.895505 2.175250 -1.652894 4.618542 16.828471 23.076622 21.169559 15.759400 1.057803 4.218453 17.545832 -13.460421 -11.776058 -3.248257 -13.080831 -10.121251 2.969229 2.882566 0.725810 -7.731357 33.004445 27.697618 -36.396349 
-0.223181 0.862152 1.702870 -5.296251 -2.015761 -31.311581 -10.008307 -2.427531 -3.423455 0.659309 -2.043014 14.147535 -5.749930 3.684700 20.134006 -3.248439 0.903550 -13.346556 -1.070118 -5.917505 -30.487270 -9.986510 1.249953 -3.770232 7.168233 -6.430986 -3.754228 0.044125 -0.282392 1.820044 4.570314 -1.213743 3.338707 -1.758383 5.227863 19.791319 22.426510 19.953882 14.669224 -4.117719 5.804004 14.928086 -11.758578 -10.269953 -10.934919 -13.883958 -10.988357 3.284616 2.509380 -0.548753 -3.931172 29.684023 24.448802 -34.267794 
-0.230225 0.881760 1.800711 -3.480719 -1.054254 -31.767727 -5.201490 -1.858111 -6.528886 -4.371051 3.554154 25.515329 -10.901015 2.196519 31.056594 -1.776382 0.720017 -8.628394 -2.019317 -6.259852 -64.818570 -2.523787 1.511873 10.271417 6.018407 -5.177424 -5.883460 -0.336830 0.507298 3.129947 5.247174 -1.278779 3.542078 -2.319515 8.538234 20.184775 22.428701 20.567932 15.128276 -5.240184 5.412978 12.246950 -11.196214 -9.646614 -17.468135 -13.555465 -10.588111 3.144179 2.378722 -1.739784 -0.913750 26.721862 23.615864 -35.250647 
-0.236544 0.902575 1.893147 -0.720824 0.183592 -32.629494 -0.071257 -1.057199 -10.810132 -6.147428 6.395954 36.470088 -7.928527 6.065592 29.478269 0.183605 0.460195 -3.776822 -5.001306 -1.282125 -65.240900 2.504409 0.297615 13.845733 3.391877 -2.846562 -6.712557 -0.602465 1.155988 3.119223 6.771671 -1.143308 3.628269 -2.391175 8.360759 17.183264 20.974090 20.494725 14.684081 -5.519286 3.543104 6.179867 -8.761155 -6.358098 -24.615256 -11.020923 -8.246177 2.287029 3.012609 -1.776012 -2.100644 24.021837 23.390943 -37.043048 
-0.240668 0.886383 1.971628 -0.080263 0.620689 -33.346408 3.736311 -0.132057 -12.802379 -5.366058 4.999341 31.599129 -6.336322 4.648343 23.066357 2.422091 0.852324 -4.695120 -6.158898 3.921510 -52.025105 -1.688716 0.460473 1.578913 2.775508 -2.394409 -5.214799 -0.904533 1.982209 1.330691 8.335171 -1.469205 4.528208 -3.236066 11.394629 13.298779 20.299644 21.291322 15.078991 -6.977557 1.404046 -1.892164 -5.783520 -1.718642 -28.928257 -8.873967 -6.050629 1.609910 2.821314 0.912682 -8.073695 22.671094 22.216590 -36.243653 
-0.239486 0.875646 2.037784 -0.281445 0.744892 -32.847729 4.960612 0.416773 -9.129236 -2.521828 1.741651 11.714785 -8.404078 2.215056 25.039476 3.813165 1.188107 -5.744908 -5.729365 6.315215 -42.469042 -4.542921 0.148199 -6.012940 2.962693 -2.561483 -5.165786 -1.081736 2.408953 0.974434 9.181512 -1.598124 4.063765 -3.658216 12.771874 12.014334 19.056753 19.586284 13.542492 -8.897119 0.312930 -6.673686 -3.152416 2.390873 -29.963412 -7.406289 -4.219132 1.143038 2.904017 2.780919 -12.995844 21.374519 21.301419 -35.780860 
-0.234315 0.877427 2.095454 -1.532185 0.510836 -30.818229 4.638320 0.682100 -2.575637 2.734062 -1.968565 -4.130171 -11.739381 -0.430858 29.433667 4.821611 1.130839 -4.526054 -5.586000 7.000713 -40.031179 -5.067097 -0.302792 -10.354595 4.109488 -3.400481 -7.580784 -0.781831 1.674671 1.713590 8.946436 -1.368176 3.174275 -3.486197 12.167892 12.330292 18.460977 18.155597 12.402676 -10.024335 0.129972 -7.949140 -3.275390 2.379229 -30.701999 -6.632304 -3.468610 0.949490 3.596515 3.332568 -15.710368 21.000171 20.644196 -34.968333 
